<svg id="Capa_1" enable-background="new 0 0 512 512" height="512" viewBox="0 0 512 512" width="512" xmlns="http://www.w3.org/2000/svg"><g><g><path d="m319.968 461.422h-127.936l14.112-118.443h99.712z" fill="#d8d4c9"/><path d="m319.973 461.425h-127.947l4.88-40.936c6.762 1.658 13.83 2.528 21.097 2.528 45.417 0 82.872-34.127 88.081-78.144z" fill="#b5b1a4"/><path d="m319.973 461.425h-82.178c38.513 0 70.23-29.164 74.24-66.619z" fill="#8f8b81"/><g><path d="m476.717 375.423h-441.434c-19.484 0-35.28-15.795-35.28-35.28v-275.734c0-19.484 15.795-35.28 35.28-35.28h441.434c19.484 0 35.28 15.795 35.28 35.28v275.735c0 19.484-15.795 35.279-35.28 35.279z" fill="#8f8b81"/><path d="m512 64.413v275.733c0 19.486-15.793 35.28-35.28 35.28h-441.44c-19.486 0-35.28-15.794-35.28-35.28v-27.93c39.619 16.781 83.189 26.072 128.923 26.072 175.398 0 318.88-136.555 329.946-309.155h17.851c19.487 0 35.28 15.794 35.28 35.28z" fill="#706c64"/><path d="m512 135.572v204.574c0 19.486-15.793 35.28-35.28 35.28h-232.915c129.617-20.028 234.374-115.341 268.195-239.854z" fill="#595751"/><path d="m512 308.065v32.081c0 19.486-15.793 35.28-35.28 35.28h-441.44c-19.486 0-35.28-15.794-35.28-35.28v-32.081z" fill="#f1eee0"/></g><path d="m338.916 482.871h-165.832c-10.133 0-18.348-8.215-18.348-18.348 0-10.133 8.215-18.348 18.348-18.348h165.832c10.133 0 18.348 8.215 18.348 18.348 0 10.133-8.215 18.348-18.348 18.348z" fill="#e8e4d8"/><path d="m262.231 446.174h-60.476c-10.133 0-18.348 8.215-18.348 18.348 0 10.133 8.215 18.348 18.348 18.348h60.476c10.133 0 18.348-8.215 18.348-18.348 0-10.133-8.215-18.348-18.348-18.348z" fill="#f1eee0"/><path d="m262.231 446.174h-60.476c-10.133 0-18.348 8.215-18.348 18.348 0 10.133 8.215 18.348 18.348 18.348h60.476c10.133 0 18.348-8.215 18.348-18.348 0-10.133-8.215-18.348-18.348-18.348z" fill="#f1eee0"/><path d="m237.985 446.174h-9.901c-10.133 0-18.348 8.215-18.348 18.348 0 10.133 8.215 18.348 18.348 18.348h9.901c10.133 0 18.348-8.215 18.348-18.348 0-10.133-8.214-18.348-18.348-18.348z" fill="#f9f8f2"/><path d="m512 308.065v32.081c0 19.486-15.793 35.28-35.28 35.28h-441.44c-19.486 0-35.28-15.794-35.28-35.28v-27.93c39.619 16.781 83.189 26.072 128.923 26.072 49.38 0 96.219-10.819 138.284-30.223z" fill="#e8e4d8"/><path d="m512 308.065v32.081c0 19.486-15.793 35.28-35.28 35.28h-232.915c57.658-8.902 110.39-32.704 154.16-67.36h114.035z" fill="#d8d4c9"/><g><path d="m46.536 233.582v-96.715c0-12.85-10.417-23.268-23.268-23.268-12.851 0-23.268 10.418-23.268 23.268v96.715c0 12.85 10.417 23.268 23.268 23.268 12.85 0 23.268-10.418 23.268-23.268z" fill="#b5b1a4"/><path d="m46.536 191.521v-22.66c0-12.85-10.417-23.268-23.268-23.268-12.851-.001-23.268 10.417-23.268 23.267v22.66c0 12.85 10.417 23.268 23.268 23.268 12.85 0 23.268-10.417 23.268-23.267z" fill="#d8d4c9"/></g><g><path d="m172.222 75.665h186.715c12.85 0 23.268-10.417 23.268-23.268 0-12.85-10.417-23.268-23.268-23.268h-186.715c-12.85 0-23.268 10.417-23.268 23.268 0 12.851 10.417 23.268 23.268 23.268z" fill="#b5b1a4"/><path d="m209.249 75.665h103.66c12.85 0 23.268-10.417 23.268-23.268 0-12.85-10.417-23.268-23.268-23.268h-103.66c-12.85 0-23.268 10.417-23.268 23.268 0 12.851 10.417 23.268 23.268 23.268z" fill="#d8d4c9"/><path d="m284.401 29.129h-43.786c-12.851 0-23.268 10.417-23.268 23.268 0 12.851 10.417 23.268 23.268 23.268h43.786c12.851 0 23.268-10.417 23.268-23.268 0-12.85-10.417-23.268-23.268-23.268z" fill="#e8e4d8"/></g></g><g><g><path d="m258.742 144.127c0 5.88 3.288 11.295 8.498 13.667 10.819 4.925 18.576 15.815 18.576 28.852 0 8.461-3.197 16.422-9.004 22.418-2.777 2.868-5.991 5.116-9.484 6.683-5.148 2.308-8.586 7.416-8.586 13.211v.617c0 10.487 10.389 17.523 19.724 13.393 6.847-3.029 13.142-7.412 18.571-13.019 11.209-11.575 17.383-26.954 17.382-43.304-.001-25.096-14.697-46.708-35.667-56.156-9.445-4.256-20.01 2.996-20.01 13.638z" fill="#f1eee0"/></g><g fill="#f1eee0"><circle cx="221.46" cy="233.099" r="17.879"/><circle cx="221.46" cy="140.32" r="17.879"/></g></g></g></svg>