<svg id="Line_flat" height="512" viewBox="0 0 128 128" width="512" xmlns="http://www.w3.org/2000/svg" data-name="Line flat"><path d="m16.606 23.759 6.874 96.915a6.806 6.806 0 0 0 6.79 6.326h67.46a6.807 6.807 0 0 0 6.79-6.326l6.874-96.915z" fill="#c1cdd2"/><path d="m110.659 34.124.735-10.365h-94.788l.735 10.365z" fill="#bac2d3"/><g stroke="#2f3a5a" stroke-width="2"><path d="m16.606 23.759 6.874 96.916a6.807 6.807 0 0 0 6.79 6.325h67.46a6.807 6.807 0 0 0 6.79-6.325l6.874-96.916z" fill="none" stroke-linecap="round" stroke-linejoin="round"/><rect fill="#c1cdd2" height="17.357" rx="2.938" stroke-miterlimit="10" width="106.453" x="10.773" y="12.434"/><path d="m43.679 51.447a4.451 4.451 0 0 0 -4.451 4.453v45.246a4.452 4.452 0 0 0 8.9 0v-45.246a4.452 4.452 0 0 0 -4.449-4.453z" fill="#b0b4c1" stroke-linecap="round" stroke-linejoin="round"/><path d="m64 51.447a4.452 4.452 0 0 0 -4.452 4.453v45.246a4.452 4.452 0 0 0 8.9 0v-45.246a4.452 4.452 0 0 0 -4.448-4.453z" fill="#b0b4c1" stroke-linecap="round" stroke-linejoin="round"/><path d="m84.32 51.447a4.451 4.451 0 0 0 -4.451 4.453v45.246a4.452 4.452 0 0 0 8.9 0v-45.246a4.452 4.452 0 0 0 -4.449-4.453z" fill="#b0b4c1" stroke-linecap="round" stroke-linejoin="round"/><path d="m48.157 1h31.686a2.725 2.725 0 0 1 2.725 2.725v8.709a0 0 0 0 1 0 0h-37.136a0 0 0 0 1 0 0v-8.709a2.725 2.725 0 0 1 2.725-2.725z" fill="none" stroke-miterlimit="10"/></g></svg>